<?xml version="1.0" encoding="UTF-8" standalone="no"?>
<svg
   xmlns:dc="http://purl.org/dc/elements/1.1/"
   xmlns:cc="http://creativecommons.org/ns#"
   xmlns:rdf="http://www.w3.org/1999/02/22-rdf-syntax-ns#"
   xmlns:svg="http://www.w3.org/2000/svg"
   xmlns="http://www.w3.org/2000/svg"
   viewBox="0 0 377.94666 377.94666"
   height="377.94666"
   width="377.94666"
   xml:space="preserve"
   id="svg2"
   version="1.1"><metadata
     id="metadata8"><rdf:RDF><cc:Work
         rdf:about=""><dc:format>image/svg+xml</dc:format><dc:type
           rdf:resource="http://purl.org/dc/dcmitype/StillImage" /></cc:Work></rdf:RDF></metadata><defs
     id="defs6" /><g
     transform="matrix(1.3333333,0,0,-1.3333333,0,377.94667)"
     id="g10"><g
       transform="scale(0.1)"
       id="g12"><path
         id="path14"
         style="fill:#ffffff;fill-opacity:1;fill-rule:nonzero;stroke:none"
         d="m 2607.87,1203.45 c 0,305.49 -247.64,553.13 -553.13,553.13 -305.48,0 -553.13,-247.64 -553.13,-553.13 0,-305.489 247.65,-553.13 553.13,-553.13 305.49,0 553.13,247.641 553.13,553.13 z m -110.62,0 c 0,-244.391 -198.12,-442.501 -442.51,-442.501 -244.39,0 -442.5,198.11 -442.5,442.501 0,244.39 198.11,442.51 442.5,442.51 244.39,0 442.51,-198.12 442.51,-442.51" /><path
         id="path16"
         style="fill:#ffffff;fill-opacity:1;fill-rule:nonzero;stroke:none"
         d="m 2329.17,1802.5 -274.43,192.03 -274.42,-192.03 -49.87,71.21 324.29,227.17 324.29,-227.17 -49.86,-71.21" /><path
         id="path18"
         style="fill:#ffffff;fill-opacity:1;fill-rule:nonzero;stroke:none"
         d="m 1957.44,2211.22 c 19.86,-4.88 45.21,-13.85 76.07,-26.88 30.42,-13.04 58.95,-22.91 85.57,-29.63 26.63,-6.72 55.15,-10.07 85.58,-10.07 60.85,0 112.84,22.39 155.94,67.19 v 96.53 c -22.82,-23.22 -47.76,-41.35 -74.8,-54.38 -27.05,-13.03 -51.98,-19.54 -74.8,-19.54 -19.44,0 -39.09,2.54 -58.95,7.63 -19.87,5.09 -45.23,13.95 -76.07,26.57 -34.23,13.84 -63.93,23.93 -89.07,30.25 -25.14,6.31 -52.51,9.47 -82.09,9.47 -61.7,0 -113.68,-22 -155.94,-65.98 v -97.74 c 22.82,21.99 47.65,39.8 74.49,53.45 26.83,13.64 51.44,20.46 73.85,20.46 20.28,0 40.35,-2.44 60.22,-7.33" /><path
         id="path20"
         style="fill:#ffffff;fill-opacity:1;fill-rule:nonzero;stroke:none"
         d="m 1218.85,1258.76 v 0 H 779.902 v -110.62 h 438.948 c -27.24,-218.261 -213.3,-387.191 -438.948,-387.191 -244.386,0 -442.504,198.11 -442.504,442.501 0,244.39 198.118,442.51 442.504,442.51 185.692,0 344.558,-114.43 410.218,-276.57 h 117.56 c -70.49,224.41 -280.11,387.19 -527.778,387.19 -305.484,0 -553.129,-247.64 -553.129,-553.13 0,-305.489 247.645,-553.13 553.129,-553.13 286.818,0 522.618,218.309 550.368,497.82 v 0 0 c 1.81,18.19 2.77,36.64 2.77,55.31 0,18.67 -0.96,37.12 -2.77,55.31 h -111.42" /></g></g></svg>