<?xml version="1.0" standalone="no"?><!-- Generator: Gravit.io --><svg xmlns="http://www.w3.org/2000/svg" xmlns:xlink="http://www.w3.org/1999/xlink" style="isolation:isolate" viewBox="0 0 367.5 271.1" width="367.5" height="271.1"><defs><clipPath id="_clipPath_wf4YovK5ZxojExCiK6K3bf9NIQfvLkeA"><rect width="367.5" height="271.1"/></clipPath></defs><g clip-path="url(#_clipPath_wf4YovK5ZxojExCiK6K3bf9NIQfvLkeA)"><g><path d=" M 342.49 172.335 C 342.49 131.603 309.471 98.585 268.739 98.585 C 228.008 98.585 194.988 131.603 194.988 172.335 C 194.988 213.067 228.008 246.086 268.739 246.086 C 309.471 246.086 342.49 213.067 342.49 172.335 L 342.49 172.335 Z  M 327.74 172.335 C 327.74 204.921 301.324 231.335 268.739 231.335 C 236.154 231.335 209.739 204.921 209.739 172.335 C 209.739 139.75 236.154 113.334 268.739 113.334 C 301.324 113.334 327.74 139.75 327.74 172.335 Z " fill="rgb(255,255,255)"/><path d=" M 305.33 92.462 L 268.739 66.858 L 232.15 92.462 L 225.5 82.967 L 268.739 52.678 L 311.978 82.967 L 305.33 92.462 Z " fill="rgb(255,255,255)"/><path d=" M 255.766 37.966 C 258.414 38.617 261.794 39.813 265.908 41.55 C 269.964 43.289 273.768 44.605 277.318 45.501 C 280.868 46.397 284.671 46.843 288.728 46.843 C 296.842 46.843 303.774 43.858 309.52 37.885 L 309.52 25.014 C 306.478 28.11 303.152 30.527 299.547 32.265 C 295.94 34.002 292.616 34.87 289.574 34.87 C 286.982 34.87 284.362 34.531 281.714 33.853 C 279.064 33.174 275.683 31.993 271.571 30.31 C 267.007 28.465 263.047 27.119 259.695 26.277 C 256.343 25.435 252.694 25.014 248.75 25.014 C 240.523 25.014 233.592 27.947 227.958 33.811 L 227.958 46.843 C 231 43.911 234.311 41.537 237.89 39.717 C 241.467 37.898 244.748 36.989 247.736 36.989 C 250.44 36.989 253.116 37.314 255.766 37.966" fill="rgb(255,255,255)"/><path d=" M 157.287 164.961 L 157.287 164.961 L 98.761 164.961 L 98.761 179.71 L 157.287 179.71 C 153.655 208.811 128.847 231.335 98.761 231.335 C 66.176 231.335 39.76 204.921 39.76 172.335 C 39.76 139.75 66.176 113.334 98.761 113.334 C 123.52 113.334 144.702 128.591 153.456 150.21 L 169.131 150.21 C 159.732 120.289 131.783 98.585 98.761 98.585 C 58.03 98.585 25.01 131.603 25.01 172.335 C 25.01 213.067 58.03 246.086 98.761 246.086 C 137.003 246.086 168.443 216.978 172.143 179.71 L 172.143 179.71 L 172.143 179.71 C 172.384 177.285 172.512 174.825 172.512 172.335 C 172.512 169.846 172.384 167.386 172.143 164.961 L 157.287 164.961" fill="rgb(255,255,255)"/></g></g></svg>